:SAMPLES-PER-SECOND 30
:FULLY-SPECIFIED
:DEGREES
70
root  -2.54402 40.4717 0.221571 -179.178 -86.0082 173.38
RightUpLeg  3.18104 -1.15472 -1.78123
RightLeg  11.6282 -15.3913 -4.04339
RightFoot  -7.35026 -0.265168 6.1732
RightToes  -3.11842e-008 1.75238e-005 3.56266e-009
Spine  15.1186 -16.3363 -30.3628
Spine1  -13.7054 -21.3611 41.2259
HEad  -26.0077 54.3755 -47.094
LeftShoulder1  2.65851 -1.72798 -44.2261
LeftArm  -16.9766 -62.6248 -18.1766
LeftForeArm  150.72 -80.9231 -112.74
LeftHand  -2.90051 -7.4713 26.0665
RightShoulder  -4.25479 36.8493 -21.4556
RightArm  -51.7977 29.1417 35.9073
RightForeArm  164.618 56.4537 164.487
RightHand  -2.20748 13.3886 -13.968
LeftUpLeg  4.46583 3.3099 2.30335
LeftLeg  8.86665 14.0976 0.991328
LeftFoot  -6.09675 0.1528 -2.52781
LeftToes  4.7713e-008 1.46693e-008 1.32589e-009
71
root  -2.73486 40.3424 0.275687 178.023 -82.7013 174.406
RightUpLeg  4.08648 0.272627 -1.78965
RightLeg  13.5175 -13.3515 -4.16555
RightFoot  -8.6502 -0.211624 6.4934
RightToes  -3.11842e-008 1.75238e-005 3.56266e-009
Spine  14.4097 -15.3058 -28.9758
Spine1  -13.0738 -20.2218 38.7843
HEad  -23.6471 54.3664 -46.1398
LeftShoulder1  3.0841 -2.48302 -44.8852
LeftArm  -12.4036 -61.3983 -22.3888
LeftForeArm  156.955 -80.545 -118.037
LeftHand  -3.15323 -6.70777 29.974
RightShoulder  -3.67685 36.3226 -20.0042
RightArm  -48.6579 28.9995 35.9708
RightForeArm  165.508 56.9939 164.257
RightHand  -2.2975 13.5898 -14.358
LeftUpLeg  6.45874 4.20378 2.38153
LeftLeg  10.4381 16.309 1.6841
LeftFoot  -7.34764 0.130483 -2.48275
LeftToes  4.7713e-008 1.46693e-008 1.32589e-009
72
root  -2.94287 40.2199 0.298508 176.352 -80.0826 175.111
RightUpLeg  4.24477 1.80836 -1.78511
RightLeg  15.3579 -12.077 -4.13259
RightFoot  -9.86072 -0.153612 6.68692
RightToes  -3.11842e-008 1.75238e-005 3.56266e-009
Spine  13.5788 -14.4533 -28.0746
Spine1  -13.0906 -19.0729 37.5967
HEad  -19.8571 53.7122 -43.8983
LeftShoulder1  3.53585 -3.25673 -45.5895
LeftArm  -6.8764 -61.288 -27.5028
LeftForeArm  152.543 -80.714 -115.054
LeftHand  -3.10858 -5.44823 32.7112
RightShoulder  -3.12886 35.3325 -18.7081
RightArm  -46.2445 28.6591 35.217
RightForeArm  166.755 57.7921 163.903
RightHand  -2.55686 13.8609 -15.7039
LeftUpLeg  7.56071 4.82603 2.33979
LeftLeg  11.9036 18.0964 2.45408
LeftFoot  -8.46182 0.118669 -2.70432
LeftToes  4.7713e-008 1.46693e-008 1.32589e-009
73
root  -3.14213 40.1502 0.260523 175.92 -79.0062 175.283
RightUpLeg  4.2409 2.3175 -1.81032
RightLeg  16.37 -11.4661 -4.03113
RightFoot  -10.7194 -0.109976 6.81454
RightToes  -3.11842e-008 1.75238e-005 3.56266e-009
Spine  12.726 -14.3063 -28.0769
Spine1  -13.1373 -18.7252 37.3103
HEad  -17.738 53.6825 -42.3616
LeftShoulder1  4.02946 -4.13723 -46.01
LeftArm  -2.16566 -62.5054 -31.6355
LeftForeArm  145.126 -81.2288 -106.844
LeftHand  -3.35034 -5.97927 33.6038
RightShoulder  -2.65957 34.0184 -17.6394
RightArm  -45.4966 28.7268 34.2886
RightForeArm  166.283 58.2491 163.589
RightHand  -2.67491 14.073 -16.2268
LeftUpLeg  8.04923 5.07431 2.3604
LeftLeg  12.5617 18.822 2.84398
LeftFoot  -9.1032 0.113997 -3.03592
LeftToes  4.7713e-008 1.46693e-008 1.32589e-009
74
root  -3.31649 40.1326 0.204277 175.46 -78.5918 175.739
RightUpLeg  4.34777 2.37659 -1.7089
RightLeg  16.6582 -11.2213 -3.97983
RightFoot  -11.0625 -0.0919462 6.85252
RightToes  -3.11842e-008 1.75238e-005 3.56266e-009
Spine  12.262 -14.4377 -28.0802
Spine1  -13.3848 -18.6704 37.3133
HEad  -17.5409 53.3574 -41.9748
LeftShoulder1  3.94418 -4.11971 -45.1062
LeftArm  3.27227 -64.7148 -37.1446
LeftForeArm  136.574 -81.5879 -97.0295
LeftHand  -3.34787 -6.42658 32.3563
RightShoulder  -2.17858 32.4359 -16.5027
RightArm  -45.7639 29.2721 32.8147
RightForeArm  165.471 58.4133 163.418
RightHand  -2.73012 14.492 -16.2132
LeftUpLeg  8.47807 5.16878 2.54542
LeftLeg  12.4752 19.0753 2.80578
LeftFoot  -9.34357 0.114319 -3.33765
LeftToes  4.7713e-008 1.46693e-008 1.32589e-009
75
root  -3.50465 40.1817 0.159926 174.108 -78.6501 177.523
RightUpLeg  4.74948 1.39405 -1.54657
RightLeg  15.534 -10.471 -3.5721
RightFoot  -10.8486 -0.102666 6.75377
RightToes  -3.11842e-008 1.75238e-005 3.56266e-009
Spine  11.6799 -14.6745 -27.6496
Spine1  -13.688 -18.6287 37.7431
HEad  -17.6991 52.8092 -41.8871
LeftShoulder1  4.05281 -4.41367 -44.6121
LeftArm  7.02864 -67.5355 -39.9737
LeftForeArm  131.464 -81.6837 -90.9273
LeftHand  -3.17801 -6.40479 30.8916
RightShoulder  -1.69582 30.8549 -15.2505
RightArm  -47.6862 29.6196 30.3672
RightForeArm  163.493 58.0697 163.455
RightHand  -2.68914 14.4582 -16.0054
LeftUpLeg  8.65161 4.99359 2.83146
LeftLeg  11.8297 19.1716 2.75216
LeftFoot  -9.22942 0.122539 -3.64704
LeftToes  4.7713e-008 1.46693e-008 1.32589e-009
76
root  -3.67095 40.2588 0.137123 173.348 -78.6713 179.038
RightUpLeg  5.04365 0.51261 -1.4256
RightLeg  13.8086 -9.72843 -3.1494
RightFoot  -10.3253 -0.128351 6.53125
RightToes  -3.11842e-008 1.75238e-005 3.56266e-009
Spine  10.8913 -14.7281 -26.8727
Spine1  -13.9212 -18.3319 38.0399
HEad  -17.9541 51.7651 -41.8006
LeftShoulder1  4.16879 -4.77545 -43.8542
LeftArm  12.2964 -70.2411 -44.6014
LeftForeArm  128.532 -81.7041 -87.1788
LeftHand  -3.3311 -7.07825 30.6364
RightShoulder  -1.33142 28.7853 -14.3403
RightArm  -50.6284 29.5904 27.715
RightForeArm  161.31 57.4693 163.629
RightHand  -2.6546 14.1838 -16.0211
LeftUpLeg  8.63446 4.82589 3.0766
LeftLeg  10.7202 19.3745 2.39968
LeftFoot  -8.90101 0.133549 -3.75606
LeftToes  4.7713e-008 1.46693e-008 1.32589e-009
77
root  -3.79956 40.3393 0.0922854 173.622 -78.7431 179.704
RightUpLeg  4.99974 0.0935443 -1.31912
RightLeg  12.2344 -9.46463 -2.90279
RightFoot  -9.68485 -0.160566 6.55247
RightToes  -3.11842e-008 1.75238e-005 3.56266e-009
Spine  9.85758 -14.7484 -26.4005
Spine1  -13.721 -18.136 38.3345
HEad  -17.703 51.1507 -40.8234
LeftShoulder1  4.16516 -4.97643 -42.7056
LeftArm  18.3831 -72.8518 -50.213
LeftForeArm  125.917 -81.6456 -85.7792
LeftHand  -3.22015 -6.60251 30.793
RightShoulder  -0.842107 26.6385 -12.8436
RightArm  -53.717 29.8337 25.0299
RightForeArm  159.345 57.0418 163.715
RightHand  -2.66199 13.9155 -16.2767
LeftUpLeg  8.34642 4.6199 3.18345
LeftLeg  9.59044 19.5444 1.97177
LeftFoot  -8.45443 0.151296 -3.99788
LeftToes  4.7713e-008 1.46693e-008 1.32589e-009
78
root  -3.90352 40.4114 0.0451698 173.431 -79.0121 -179.242
RightUpLeg  5.02959 -0.688549 -1.23466
RightLeg  10.661 -9.09099 -2.52255
RightFoot  -9.02742 -0.190185 6.36624
RightToes  -3.11842e-008 1.75238e-005 3.56266e-009
Spine  9.17251 -14.8722 -25.7233
Spine1  -13.6557 -18.0464 38.2199
HEad  -16.34 50.6777 -38.6598
LeftShoulder1  3.97469 -4.905 -41.001
LeftArm  24.9577 -74.9635 -56.9709
LeftForeArm  126.975 -81.691 -85.5462
LeftHand  -3.42765 -7.65722 30.1496
RightShoulder  -0.367829 24.294 -11.1789
RightArm  -56.5702 30.8968 23.5169
RightForeArm  157.564 56.8922 163.653
RightHand  -2.64075 13.9484 -16.1243
LeftUpLeg  8.04043 4.52705 3.42102
LeftLeg  8.55975 19.4156 1.53219
LeftFoot  -8.09721 0.161278 -3.97643
LeftToes  4.7713e-008 1.46693e-008 1.32589e-009
79
root  -3.94744 40.4556 -0.00935568 174.065 -78.948 -179.227
RightUpLeg  4.84819 -0.678339 -1.09084
RightLeg  9.71513 -9.14738 -2.45345
RightFoot  -8.59383 -0.204636 6.09215
RightToes  -3.11842e-008 1.75238e-005 3.56266e-009
Spine  8.33729 -14.706 -25.1662
Spine1  -12.813 -17.9138 37.4636
HEad  -16.1719 49.5829 -36.5491
LeftShoulder1  4.01383 -5.25155 -39.6534
LeftArm  33.5167 -76.5353 -65.5545
LeftForeArm  123.65 -81.6552 -81.2382
LeftHand  -3.39831 -7.36461 30.5563
RightShoulder  0.187912 22.3592 -8.83731
RightArm  -59.3761 31.619 21.642
RightForeArm  156.254 56.5416 163.749
RightHand  -2.5369 13.7306 -15.6865
LeftUpLeg  7.78114 4.43552 3.4982
LeftLeg  7.81773 19.6436 1.18003
LeftFoot  -7.83492 0.175235 -4.19115
LeftToes  4.7713e-008 1.46693e-008 1.32589e-009
80
root  -3.95992 40.4813 -0.0866876 174.592 -79.2047 -179.187
RightUpLeg  4.55941 -0.745731 -0.942319
RightLeg  9.15287 -9.42485 -2.37535
RightFoot  -8.24008 -0.204333 5.47477
RightToes  -3.11842e-008 1.75238e-005 3.56266e-009
Spine  7.48001 -14.43 -24.8922
Spine1  -11.4943 -17.8647 36.7108
HEad  -16.2254 47.6145 -34.5013
LeftShoulder1  4.03573 -5.63964 -38.0317
LeftArm  42.9789 -76.8846 -75.486
LeftForeArm  119.168 -81.5296 -76.8232
LeftHand  -3.4204 -7.50332 30.4305
RightShoulder  0.759651 20.2385 -6.00948
RightArm  -61.4568 32.1241 19.4434
RightForeArm  155.222 55.8895 164.035
RightHand  -2.57318 13.6269 -15.984
LeftUpLeg  7.29301 4.3441 3.57416
LeftLeg  7.49742 19.4674 1.0497
LeftFoot  -7.55803 0.182334 -4.14642
LeftToes  4.7713e-008 1.46693e-008 1.32589e-009
81
root  -3.9173 40.4989 -0.167956 175.338 -79.8372 -179.093
RightUpLeg  3.74995 -0.733738 -0.734855
RightLeg  8.92412 -10.1914 -2.38252
RightFoot  -7.80107 -0.205282 4.92165
RightToes  -3.11842e-008 1.75238e-005 3.56266e-009
Spine  6.20844 -14.2987 -24.6376
Spine1  -9.36462 -18.1076 35.5353
HEad  -16.755 45.0675 -32.9068
LeftShoulder1  4.15187 -6.21462 -36.6595
LeftArm  52.203 -76.4634 -85.1376
LeftForeArm  117.318 -81.4624 -74.9074
LeftHand  -3.30543 -7.26579 29.9875
RightShoulder  1.2462 18.2355 -3.12603
RightArm  -63.3726 32.1701 17.1236
RightForeArm  154.015 55.0057 164.424
RightHand  -2.58684 13.6458 -16.0494
LeftUpLeg  6.11129 4.11891 3.57472
LeftLeg  7.68199 18.9735 1.19032
LeftFoot  -7.31606 0.187735 -4.09445
LeftToes  4.7713e-008 1.46693e-008 1.32589e-009
